<?xml version="1.0" standalone="no"?>
<svg viewBox="0 0 200 200" xmlns="http://www.w3.org/2000/svg">
  <path fill="#E0F2F1" d="M39.7,-51.7C53.7,-44.4,69,-35.9,73.2,-23.6C77.4,-11.4,70.5,4.7,63.5,18.9C56.5,33.2,49.5,45.8,38.8,52.8C28.2,59.9,14.1,61.5,-2.1,64.4C-18.3,67.3,-36.6,71.4,-50.6,65.5C-64.6,59.5,-74.2,43.4,-75.8,27.3C-77.4,11.2,-70.9,-4.9,-63.6,-18.5C-56.2,-32.2,-47.9,-43.4,-37.2,-51.7C-26.4,-59.9,-13.2,-65.3,-0.2,-65.1C12.8,-64.8,25.7,-58.9,39.7,-51.7Z" transform="translate(100 100)" />
</svg>
